# xmcd
#
# Track frame offsets:
#	150
#	9868
#	43706
#	55475
#	66838
#	81185
#	97047
#	110134
#	127064
#	138760
#	152816
#	171602
#	186156
#	204250
#	232251
#
# Disc length: 3458 seconds
#
# Revision: 0
# Processed by: cddbd v1.4PL0 Copyright (c) Steve Scherf et al.
# Submitted via: dBpowerAMP V4.0
#
DISCID=da0d800f
DTITLE=Arias de Zarzuela - La Zarzuela - Antología General CD 2
DYEAR=1900
DGENRE=
TTITLE0=Agua, Azucarillos y Aguardiente - "Preludio"
TTITLE1=El Barberillo de Lavapiés - "Dicen que en el Pardo"
TTITLE2=La Alegría del Batallón - "Canción"
TTITLE3=La Canción del Olvido - "Marinela"
TTITLE4=La del Manojo de Rosas - "Dúo de Ascensión y Joaquín"
TTITLE5=Luisa Fernanda
TTITLE6=Mal de Amores - "Canción de la Gitanilla"
TTITLE7=A Unos Ojos Hechiceros
TTITLE8=Katiuska - "La Mujer Rusa"
TTITLE9=Ay, Ay, Ay
TTITLE10=El Caserío
TTITLE11=Gigantes y Cabezudos - "Jota"
TTITLE12=Pichi
TTITLE13=La Venta de los Gatos - "Preludio"
TTITLE14=Jota de la Dolores
EXTD=
EXTT0=
EXTT1=
EXTT2=
EXTT3=
EXTT4=
EXTT5=
EXTT6=
EXTT7=
EXTT8=
EXTT9=
EXTT10=
EXTT11=
EXTT12=
EXTT13=
EXTT14=
PLAYORDER=
